# Blender v2.93.2 OBJ File: 'tile.blend'
# www.blender.org
g Tile
v -0.500000 0.000000 -0.500000
v 0.500000 0.000000 -0.500000
v -0.500000 0.000000 0.500000
v 0.500000 0.000000 0.500000
v 0.000000 -0.587092 0.000000
v 0.228012 -0.891265 0.269372
v 0.500000 -0.397764 0.500000
v -0.500000 -0.397764 -0.500000
v 0.500000 -0.397764 -0.500000
v -0.000000 0.000000 -0.500000
v -0.000000 -0.500000 -0.500000
v 0.500000 -0.500000 -0.000000
v 0.500000 0.000000 -0.000000
v 0.222351 -0.784514 -0.219939
v -0.241271 -0.891265 -0.244071
vt 0.000000 0.000000
vt 0.999882 0.000000
vt 1.000000 1.000000
vt 0.000000 1.000000
vt 0.000000 0.000000
vt 0.000000 0.000000
vt 0.000000 0.000000
vt 0.000000 0.000000
vt 0.000000 0.000000
vt 0.000000 0.000000
vt 0.000000 0.000000
vt 0.000000 0.000000
vt 0.000000 0.000000
vt 0.000000 0.000000
vt 0.000000 0.000000
vt 0.000000 0.000000
vt 0.000000 0.000000
vn 0.0000 1.0000 0.0000
vn 1.0000 0.0000 -0.0000
vn -0.0000 0.0000 -1.0000
vn 0.8492 -0.5174 0.1058
vn 0.1068 -0.6131 -0.7827
vn 0.7581 -0.6389 -0.1306
vn 0.1312 -0.6415 -0.7558
vn -0.1022 -0.4997 -0.8602
vn 0.8168 -0.5684 -0.0990
s off
f 2/1/1 1/2/1 3/3/1 4/4/1
f 12/5/2 13/6/2 4/7/2 7/8/2
f 11/9/3 10/10/3 2/1/3 9/11/3
f 8/12/3 1/13/3 10/10/3 11/9/3
f 9/11/2 2/1/2 13/6/2 12/5/2
f 7/8/4 6/14/4 12/5/4
f 5/15/5 12/5/5 6/14/5
f 12/5/6 14/16/6 9/11/6
f 9/11/7 14/16/7 11/9/7
f 11/9/8 15/17/8 8/12/8
f 11/9/9 5/15/9 15/17/9
